<svg xmlns="http://www.w3.org/2000/svg" xmlns:xlink="http://www.w3.org/1999/xlink" viewBox="0 0 536.02 84.27"><defs><style>.cls-1{fill:none;}.cls-2{stroke:#951b81;stroke-linecap:round;stroke-linejoin:round;stroke-width:5px;fill:url(#Degradado_sin_nombre_69);}.cls-3{clip-path:url(#clip-path);}.cls-4{fill:url(#Degradado_sin_nombre_53);}.cls-5{fill:#fff;}</style><linearGradient id="Degradado_sin_nombre_69" x1="2.5" y1="42.14" x2="71.15" y2="42.14" gradientUnits="userSpaceOnUse"><stop offset="0.06" stop-color="#e6007e"/><stop offset="0.14" stop-color="#e20374"/><stop offset="0.35" stop-color="#d9095b"/><stop offset="0.48" stop-color="#d60b52"/><stop offset="0.57" stop-color="#c51055"/><stop offset="0.71" stop-color="#b21558"/><stop offset="0.85" stop-color="#a7185a"/><stop offset="1" stop-color="#a3195b"/></linearGradient><clipPath id="clip-path"><polygon class="cls-1" points="73.74 24.51 39.41 4.69 5.09 24.51 5.09 64.14 39.41 83.96 73.74 64.14 73.74 24.51"/></clipPath><linearGradient id="Degradado_sin_nombre_53" x1="4.13" y1="39.39" x2="52.43" y2="39.39" gradientUnits="userSpaceOnUse"><stop offset="0" stop-color="#e6007e"/><stop offset="0.15" stop-color="#e60e79"/><stop offset="0.34" stop-color="#e71974"/><stop offset="0.54" stop-color="#e71d73"/><stop offset="1" stop-color="#d60b52"/></linearGradient></defs><g id="Capa_2" data-name="Capa 2"><g id="Capa_1-2" data-name="Capa 1"><polygon class="cls-2" points="71.15 22.32 36.83 2.5 2.5 22.32 2.5 61.95 36.83 81.77 71.15 61.95 71.15 22.32"/><g class="cls-3"><path class="cls-4" d="M15.59,8.27c10.75-5,30.55,7.91,35.35,23.36,1.75,5.62,1.53,11.63,1.4,15-.27,7.31-.58,15.62-5.25,20.44C40,74.34,24.2,72.42,15.24,64.84-1.31,50.84,2.17,14.55,15.59,8.27Z"/></g><path class="cls-5" d="M35.05,45.14v5.91H16.44V26.31H35.05V32H23.88v3.59h9V41.1h-9v4Z"/><path class="cls-5" d="M59.46,26.31,51.79,51.05H44.05L36,26.31h8L47.94,39.8c.26.79.5,1.58.71,2.35l4.57-15.84Z"/><path class="cls-5" d="M29.31,63.4l-.08,1.77H23.74V63.51L25,62.65c.18-.12.51-.39,1-.79a5.65,5.65,0,0,0,1-.94,1.2,1.2,0,0,0,.22-.69.78.78,0,0,0-.19-.55.67.67,0,0,0-.52-.21c-.53,0-.82.42-.89,1.25l-1.82-.35a2.91,2.91,0,0,1,1-1.9,3,3,0,0,1,1.87-.62,2.88,2.88,0,0,1,1.92.63,2.1,2.1,0,0,1,.74,1.67,2.42,2.42,0,0,1-.41,1.33A9.16,9.16,0,0,1,26.5,63.4Z"/><path class="cls-5" d="M32.91,65.28a2.41,2.41,0,0,1-2.06-1,4.39,4.39,0,0,1-.76-2.7,4.25,4.25,0,0,1,.77-2.7,2.53,2.53,0,0,1,2.08-1A2.41,2.41,0,0,1,35,58.91a4.73,4.73,0,0,1,.73,2.71A4.18,4.18,0,0,1,35,64.29,2.5,2.5,0,0,1,32.91,65.28Zm0-1.53c.3,0,.5-.19.61-.58a6.52,6.52,0,0,0,.15-1.58,5.15,5.15,0,0,0-.2-1.8.62.62,0,0,0-.56-.42c-.28,0-.47.18-.58.56a5.62,5.62,0,0,0-.16,1.53,6.52,6.52,0,0,0,.16,1.8C32.46,63.59,32.65,63.75,32.93,63.75Z"/><path class="cls-5" d="M42,63.4l-.08,1.77H36.42V63.51l1.22-.86c.18-.12.52-.39,1-.79a5.65,5.65,0,0,0,1-.94,1.21,1.21,0,0,0,.23-.69.79.79,0,0,0-.2-.55.66.66,0,0,0-.51-.21c-.53,0-.83.42-.89,1.25l-1.82-.35a2.86,2.86,0,0,1,1-1.9,3,3,0,0,1,1.88-.62,2.84,2.84,0,0,1,1.91.63,2.1,2.1,0,0,1,.74,1.67,2.41,2.41,0,0,1-.4,1.33,9.36,9.36,0,0,1-2.36,1.92Z"/><path class="cls-5" d="M45.58,65.28a2.41,2.41,0,0,1-2.06-1,4.39,4.39,0,0,1-.76-2.7,4.25,4.25,0,0,1,.78-2.7,2.52,2.52,0,0,1,2.08-1,2.39,2.39,0,0,1,2.09,1.06,4.66,4.66,0,0,1,.73,2.71,4.24,4.24,0,0,1-.78,2.67A2.54,2.54,0,0,1,45.58,65.28Zm0-1.53c.3,0,.51-.19.61-.58a6.52,6.52,0,0,0,.15-1.58,5.15,5.15,0,0,0-.2-1.8.62.62,0,0,0-.55-.42c-.28,0-.48.18-.59.56a6.06,6.06,0,0,0-.16,1.53,7,7,0,0,0,.16,1.8C45.13,63.59,45.32,63.75,45.6,63.75Z"/><path class="cls-5" d="M109.37,22.55V63.21H96.89V22.55Z"/><path class="cls-5" d="M133.17,32.29V63.21H121.35V32.29h-8.43V22.55H141.6v9.74Z"/><path class="cls-5" d="M191,53.49v9.72H160.4V22.55H191v9.38H172.64v5.9h14.83v9H172.64v6.64Z"/><path class="cls-5" d="M231.11,22.55,218.5,63.21H205.78L192.59,22.55h13.15l6.43,22.16q.66,2,1.17,3.87l7.51-26Z"/><path class="cls-5" d="M265.45,53.49v9.72H234.86V22.55h30.59v9.38H247.1v5.9h14.83v9H247.1v6.64Z"/><path class="cls-5" d="M305.15,63.21H295l-11.14-18a67.4,67.4,0,0,1-4.32-8.4,28.65,28.65,0,0,1,1,6.68V63.21H270.39V22.55h11.8l9.47,14.89a57.15,57.15,0,0,1,4.29,7.8A58.71,58.71,0,0,1,295,34.58v-12h10.15Z"/><path class="cls-5" d="M329,32.29V63.21H317.13V32.29H308.7V22.55h28.68v9.74Z"/><path class="cls-5" d="M358.5,63.83a18.45,18.45,0,0,1-14-5.69q-5.4-5.69-5.4-15.22,0-9.12,5.17-15.06t14.34-5.94a18.26,18.26,0,0,1,13.83,5.6q5.35,5.61,5.35,15,0,9.69-5.39,15.52A18.09,18.09,0,0,1,358.5,63.83Zm-.06-9.23A4.72,4.72,0,0,0,363,51.84c.92-1.84,1.39-5.2,1.39-10.08q0-10.6-5.69-10.6-6.14,0-6.14,12.09Q352.54,54.59,358.44,54.6Z"/><path class="cls-5" d="M428,53.23l-.45,10h-31V53.85L403.51,49c1-.7,2.91-2.19,5.69-4.49a31.17,31.17,0,0,0,5.42-5.28,6.7,6.7,0,0,0,1.27-3.87,4.4,4.4,0,0,0-1.1-3.12,3.82,3.82,0,0,0-2.9-1.17q-4.49,0-5,7l-10.28-2c.76-4.79,2.63-8.34,5.62-10.68a16.7,16.7,0,0,1,10.58-3.5,16.1,16.1,0,0,1,10.8,3.55,11.75,11.75,0,0,1,4.19,9.44,13.57,13.57,0,0,1-2.28,7.47q-2.28,3.56-13.33,10.85Z"/><path class="cls-5" d="M448.33,63.83A13.73,13.73,0,0,1,436.68,58q-4.29-5.8-4.29-15.24,0-9.67,4.4-15.28a14.18,14.18,0,0,1,11.75-5.6q7.71,0,11.82,6t4.11,15.27q0,9.47-4.42,15.07A14.21,14.21,0,0,1,448.33,63.83Zm.12-8.64q2.57,0,3.42-3.26a36.09,36.09,0,0,0,.87-8.92q0-7.77-1.15-10.16c-.76-1.58-1.8-2.38-3.11-2.38q-2.39,0-3.29,3.14a32.35,32.35,0,0,0-.91,8.66q0,7.47.91,10.2C445.79,54.28,446.88,55.19,448.45,55.19Z"/><path class="cls-5" d="M499.56,53.23l-.45,10h-31V53.85L475.06,49c1-.7,2.91-2.19,5.68-4.49a31,31,0,0,0,5.43-5.28,6.7,6.7,0,0,0,1.27-3.87,4.36,4.36,0,0,0-1.11-3.12,3.8,3.8,0,0,0-2.9-1.17q-4.47,0-5,7l-10.27-2c.75-4.79,2.62-8.34,5.61-10.68a16.73,16.73,0,0,1,10.59-3.5,16.1,16.1,0,0,1,10.8,3.55,11.74,11.74,0,0,1,4.18,9.44A13.57,13.57,0,0,1,497,42.38q-2.28,3.56-13.33,10.85Z"/><path class="cls-5" d="M519.87,63.83A13.73,13.73,0,0,1,508.23,58q-4.29-5.8-4.29-15.24,0-9.67,4.39-15.28a14.19,14.19,0,0,1,11.75-5.6q7.71,0,11.83,6T536,43.16q0,9.47-4.43,15.07A14.18,14.18,0,0,1,519.87,63.83Zm.12-8.64q2.57,0,3.43-3.26a36.66,36.66,0,0,0,.86-8.92q0-7.77-1.15-10.16c-.76-1.58-1.8-2.38-3.11-2.38-1.59,0-2.68,1.05-3.29,3.14a32.35,32.35,0,0,0-.91,8.66q0,7.47.91,10.2C517.34,54.28,518.42,55.19,520,55.19Z"/></g></g></svg>